# xmcd CD database file
#
# Track frame offsets:
#	150
#	8142
#	27982
#	46777
#	63325
#	64810
#	82747
#	88390
#	107527
#	110550
#	137347
#	137992
#	152975
#	172667
#	185450
#	188197
#	208720
#
# Disc length: 4412 seconds
#
# Revision: 2
# Processed by: cddbd v1.4b41PL1 Copyright (c) Steve Scherf et al.
# Submitted via: Feurio! 1.60 - http://www.feurio.com
#
DISCID=d4113a11,df113a11
DTITLE=Substance D - Addictions
DYEAR=1900
DGENRE=
TTITLE0=This Devil Inside
TTITLE1=Everyday
TTITLE2=My Life
TTITLE3=California
TTITLE4=(No Name 1)
TTITLE5=This Sound
TTITLE6=(No Name 2)
TTITLE7=Unsaid
TTITLE8=(No Name 3)
TTITLE9=Burning Time
TTITLE10=(No Name 4)
TTITLE11=Who Am I
TTITLE12=Again
TTITLE13=California Pt. 2
TTITLE14=(No Name 5)
TTITLE15=Tweek
TTITLE16=On The D
EXTD=
EXTT0=
EXTT1=
EXTT2=
EXTT3=
EXTT4=
EXTT5=
EXTT6=
EXTT7=
EXTT8=
EXTT9=
EXTT10=
EXTT11=
EXTT12=
EXTT13=
EXTT14=
EXTT15=
EXTT16=
PLAYORDER=
